<svg xmlns="http://www.w3.org/2000/svg" viewBox="0 0 375 375" version="1.2"><defs><clipPath id="prefix__a"><path d="M10.91 3H355v370H10.91zm0 0"/></clipPath></defs><path d="M342.164 157.496c-5.566-15.156-15.469-29.219-29.996-40.266-2.098-1.593-4.297-3.043-6.543-4.418L202.145 49.45a87.016 87.016 0 017.578 15.614 85.599 85.599 0 015.043 23.632l2.558 1.563c2.246 1.375 4.446 2.828 6.543 4.414 14.535 11.047 24.426 25.11 29.996 40.266 14.36 39.074-1.508 82.867-36.898 104.761L77.73 325.84c-10.554 6.876-21.718 11.56-33.011 14.231 30.41 28.762 80.496 34.914 121.312 8.313l139.235-86.125c35.39-21.899 51.261-65.692 36.898-104.762zm0 0" fill="#42ffb7"/><path d="M284.871 103.574c14.535 11.047 24.43 25.11 29.996 40.266 14.363 39.07-1.508 82.863-36.898 104.762l-139.235 86.132c-27.191 17.727-58.492 20.891-85.355 12.532 30.68 22.398 75.504 25.324 112.644 1.117l139.243-86.125c35.39-21.89 51.261-65.684 36.898-104.762-5.566-15.156-15.469-29.219-29.996-40.266-2.098-1.593-4.297-3.043-6.543-4.418zm0 0" fill="#42ffb7"/><path d="M216.973 239.707c35.39-21.887 51.257-65.68 36.898-104.762-5.57-15.152-15.469-29.218-29.996-40.265-2.098-1.594-4.297-3.04-6.543-4.414l-2.559-1.563c2.223 31.969-13.578 63.582-41.941 81.129l-139.25 86.125a106.71 106.71 0 01-15.86 8.523v17.543c0 .809-.046 1.625.032 2.43 2.379 22.973 12.422 41.875 26.957 55.617 11.293-2.672 22.465-7.355 33.012-14.23zm0 0" fill="#26ff9e"/><path d="M214.766 88.695a85.599 85.599 0 00-5.043-23.632 87.016 87.016 0 00-7.578-15.614l-36.122-22.11c-24.09-15.694-51.355-19.984-75.91-14.956-36.93 7.55-67.734 36.195-72.36 78.887-.085.804-.03 54.62-.03 55.437v117.766a106.71 106.71 0 0015.859-8.524l139.242-86.133c28.363-17.539 44.164-49.144 41.942-81.12zm0 0" fill="#29e183"/><g clip-path="url(#prefix__a)"><path d="M348.57 155.137c-6.273-17.078-17.437-32.07-32.273-43.344-2.067-1.57-4.39-3.145-7.106-4.8L205.703 43.628l-36.035-22.063C145.207 5.648 116.473.008 88.746 5.688 46.141 14.41 15.61 47.715 10.976 90.53c-.062.574-.117 1.11-.078 55.008v136.477l-.007.55c-.008.707-.024 1.594.078 2.586 2.433 23.489 12.484 44.2 29.062 59.875 16.184 15.313 37.801 24.813 60.864 26.758 3.039.262 6.07.387 9.085.387 20.98 0 41.454-6.152 59.696-18.024l139.168-86.086c38.355-23.718 55.054-71.214 39.726-112.925zm-324-63.387c4.082-36.684 30.317-65.195 66.918-72.691 24.215-4.95 49.367.015 70.82 13.996.055.03.11.07.165.101l34.648 21.211c.242.41.484.824.723 1.242.258.457.515.91.77 1.375.366.692.73 1.391 1.073 2.09.22.442.45.88.66 1.328.368.778.723 1.563 1.067 2.348.164.379.348.754.504 1.133a75.448 75.448 0 011.398 3.535 78.984 78.984 0 014.641 21.754c2.098 30.101-12.746 58.777-38.723 74.844L29.996 250.148c-.047.032-.098.055-.137.086a91.595 91.595 0 01-3.203 1.989c-.32.195-.652.386-.972.574-.38.219-.762.426-1.141.644v-107.91c-.031-31.375-.023-51.297.027-53.781zm-.027 191.996a12.126 12.126 0 01-.008-.96l.008-13.923c.043-.015.082-.039.121-.054.211-.102.414-.211.617-.313a105.781 105.781 0 004.453-2.312 94.171 94.171 0 002.72-1.532l1.136-.66a102.004 102.004 0 003.652-2.27l139.172-86.093a94.439 94.439 0 002.637-1.7c.289-.187.566-.382.847-.577.582-.395 1.157-.79 1.72-1.196.331-.234.652-.472.976-.707.515-.379 1.027-.754 1.539-1.14.336-.25.668-.508.996-.77.488-.383.973-.77 1.453-1.156.328-.266.652-.531.973-.801.488-.398.957-.809 1.437-1.223.305-.27.613-.527.91-.797a63.896 63.896 0 001.508-1.382c.254-.235.504-.461.754-.692.73-.699 1.453-1.398 2.168-2.113.117-.117.227-.242.344-.36a97.5 97.5 0 001.754-1.84c.257-.273.5-.558.754-.831.421-.473.855-.942 1.27-1.422.276-.313.55-.637.823-.957.387-.45.762-.906 1.141-1.36.273-.34.55-.675.816-1.015.364-.453.723-.91 1.075-1.375.261-.344.527-.684.777-1.028.355-.48.707-.96 1.055-1.445.242-.34.476-.668.714-1.008a99 99 0 001.098-1.625c.195-.293.395-.574.582-.87.535-.829 1.059-1.66 1.57-2.5.133-.22.258-.45.395-.677.375-.636.754-1.273 1.113-1.917.188-.336.375-.684.567-1.028.289-.535.578-1.07.863-1.613.195-.375.383-.754.582-1.137.258-.52.516-1.039.77-1.554.187-.395.375-.782.554-1.172.246-.528.488-1.055.723-1.578.176-.387.348-.782.512-1.172.234-.559.464-1.118.691-1.672l.445-1.11c.254-.644.496-1.297.73-1.941.106-.29.223-.574.325-.863.328-.934.645-1.871.95-2.813.077-.254.155-.512.234-.762.222-.707.433-1.406.636-2.12.102-.364.196-.731.301-1.102.164-.606.328-1.211.477-1.824.101-.391.187-.793.285-1.184.14-.59.273-1.18.398-1.777.086-.399.172-.809.25-1.211.121-.594.239-1.2.348-1.805l.21-1.187c.11-.645.204-1.282.302-1.926.054-.36.109-.715.156-1.074.11-.786.203-1.579.289-2.375.023-.211.055-.422.078-.645a102.9 102.9 0 00.262-2.906c.094.078.187.152.281.222.328.266.652.54.98.817.418.351.84.699 1.25 1.058.329.286.653.575.973.868.403.351.793.714 1.188 1.074.32.3.64.605.957.91.375.363.754.723 1.12 1.094.317.312.63.629.938.949.36.371.715.738 1.067 1.117.304.328.613.652.91.988.347.38.683.762 1.02 1.149.3.34.59.676.882 1.015.328.391.649.778.973 1.176.281.348.566.692.84 1.047.312.399.629.8.933 1.207.27.356.543.707.801 1.07.3.41.598.825.887 1.243.262.359.512.722.762 1.09.292.425.566.851.851 1.273.242.371.484.738.719 1.11.277.429.543.87.812 1.312.227.375.453.746.672 1.12.262.45.52.907.77 1.36.215.38.425.746.629 1.125.254.473.496.942.738 1.414.187.368.387.739.574 1.118.25.5.488 1.011.723 1.523.164.352.336.7.496 1.05.258.575.5 1.15.746 1.723.125.297.258.59.383.895.36.879.707 1.77 1.027 2.656 13.106 35.653-1.23 76.274-34.078 96.598l-139.234 86.07c-.047.031-.094.055-.133.086a105.215 105.215 0 01-3.445 2.145l-1.133.652c-.793.457-1.578.91-2.38 1.344l-1.366.722c-.73.387-1.47.762-2.207 1.125-.485.243-.98.47-1.477.707-.723.336-1.445.668-2.172.989l-1.523.66c-.73.305-1.47.605-2.207.894-.512.2-1.016.403-1.524.59-.761.285-1.531.559-2.308.817-.489.168-.977.34-1.461.504a73.21 73.21 0 01-2.586.793c-.407.117-.809.253-1.215.363-.078.023-.164.039-.246.062-12.602-13.058-20.258-29.832-22.215-48.742zm277.133-27.297l-139.242 86.125c-.047.031-.094.055-.133.086-18.313 11.938-39.153 17.309-60.258 15.52-15.715-1.328-30.625-6.672-43.066-15.305.214-.078.418-.164.628-.246.301-.11.606-.227.903-.344 1.164-.45 2.316-.91 3.465-1.398.187-.078.382-.157.574-.242 1.277-.551 2.55-1.141 3.808-1.739.305-.148.61-.297.91-.449a99.1 99.1 0 003.516-1.789c.114-.055.223-.117.332-.172 1.246-.668 2.48-1.375 3.707-2.09.297-.176.594-.355.887-.527 1.23-.738 2.457-1.492 3.668-2.277l139.168-86.094c38.344-23.723 55.047-71.207 39.71-112.918-6.28-17.082-17.44-32.07-32.273-43.344a38.48 38.48 0 00-1.562-1.148c-.18-.133-.379-.262-.566-.395-.36-.25-.723-.508-1.106-.77-.238-.156-.488-.32-.723-.48l-1.062-.7c-.266-.171-.547-.343-.824-.515-.297-.191-.586-.379-.903-.566-.015-.156-.047-.309-.062-.457a96.19 96.19 0 00-.465-3.496 85.382 85.382 0 00-.785-4.477l-.14-.738a98.653 98.653 0 00-.919-3.93c-.086-.328-.18-.66-.265-.988a109.18 109.18 0 00-.871-3.043c-.067-.219-.122-.438-.192-.66l84.52 51.746c2.324 1.422 4.277 2.742 5.972 4.031 12.762 9.695 22.352 22.555 27.723 37.184 13.113 35.656-1.219 76.281-34.074 96.605zm0 0" fill="#fff"/></g></svg>
