<svg viewBox="42.875 42.875 200 200" xmlns="http://www.w3.org/2000/svg">
<path fill="#000000" d="M142.875 44.025a98.85 98.85 0 00-98.85 98.85 98.85 98.85 0 0098.85 98.85 98.85 98.85 0 0098.85-98.85 98.85 98.85 0 00-98.85-98.85zm0 4.09a94.759 94.759 0 0194.76 94.76 94.759 94.759 0 01-94.76 94.76 94.759 94.759 0 01-94.76-94.76 94.759 94.759 0 0194.76-94.76z"/>
<path fill="#000000" d="M176.539 106.301a9.855 9.855 0 019.707 10v53.148a10 10 0 01-10 10 9.855 9.855 0 01-9.707-10V116.3a10 10 0 0110-10zM109.504 106.301a9.855 9.855 0 019.707 10v53.148a10 10 0 01-10 10 9.855 9.855 0 01-9.707-10V116.3a10 10 0 0110-10z"/>
<path fill="#000000" d="M101.578 111.274a9.855 9.855 0 0113.513-3.41l46.033 26.562a10 10 0 013.664 13.66 9.855 9.855 0 01-13.513 3.41l-46.034-26.562a10 10 0 01-3.663-13.66z"/>
<path fill="#000000" d="M101.871 174.01a9.855 9.855 0 0013.43 3.727l46.644-25.473a10 10 0 003.984-13.57 9.855 9.855 0 00-13.43-3.726l-46.644 25.473a10 10 0 00-3.984 13.57z"/>
</svg>
