<svg viewBox="42.875 42.875 200 200" xmlns="http://www.w3.org/2000/svg">
<path fill="#000000" d="M142.875 44.025a98.85 98.85 0 00-98.85 98.85 98.85 98.85 0 0098.85 98.85 98.85 98.85 0 0098.85-98.85 98.85 98.85 0 00-98.85-98.85zm0 4.09a94.759 94.759 0 0194.76 94.76 94.759 94.759 0 01-94.76 94.76 94.759 94.759 0 01-94.76-94.76 94.759 94.759 0 0194.76-94.76z"/>
<path fill="#000000" d="M114.708 106.301a9.855 9.855 0 019.708 10v53.148a10 10 0 01-10 10 9.855 9.855 0 01-9.708-10V116.3a10 10 0 0110-10zM171.334 106.301a9.855 9.855 0 019.708 10v53.148a10 10 0 01-10 10 9.855 9.855 0 01-9.708-10V116.3a10 10 0 0110-10z"/>
</svg>
