<svg viewBox="42.875 42.875 200 200" xmlns="http://www.w3.org/2000/svg">
<path fill="#000000" d="M142.875 44.025a98.85 98.85 0 00-98.85 98.85 98.85 98.85 0 0098.85 98.85 98.85 98.85 0 0098.85-98.85 98.85 98.85 0 00-98.85-98.85zm0 4.09a94.759 94.759 0 0194.76 94.76 94.759 94.759 0 01-94.76 94.76 94.759 94.759 0 01-94.76-94.76 94.759 94.759 0 0194.76-94.76z"/>
<path fill="#000000" d="M119.051 106.301a9.855 9.855 0 019.708 10v53.148a10 10 0 01-10 10 9.855 9.855 0 01-9.708-10V116.3a10 10 0 0110-10z"/>
<path fill="#000000" d="M111.125 111.274a9.855 9.855 0 0113.513-3.41l46.034 26.562a10 10 0 013.663 13.66 9.855 9.855 0 01-13.513 3.41l-46.033-26.562a10 10 0 01-3.664-13.66z"/>
<path fill="#000000" d="M111.419 174.01a9.855 9.855 0 0013.43 3.727l46.644-25.473a10 10 0 003.983-13.57 9.855 9.855 0 00-13.429-3.726l-46.644 25.473a10 10 0 00-3.984 13.57z"/>
</svg>
